/* XPM */
static char *_ba6bafef8cd403d86592cd17c3ef25e10J89uyxgyh068Mj[] = {
/* columns rows colors chars-per-pixel */
"28 20 38 1 ",
"  c None",
". c gray24",
"X c #414141",
"o c #434343",
"O c gray27",
"+ c #464646",
"@ c #484848",
"# c #4B4B4B",
"$ c #505050",
"% c gray32",
"& c #535353",
"* c #555555",
"= c #565656",
"- c #585858",
"; c gray35",
": c #5A5A5A",
"> c gray36",
", c #5D5D5D",
"< c #5F5F5F",
"1 c gray39",
"2 c #646464",
"3 c #656565",
"4 c gray40",
"5 c #868686",
"6 c #888888",
"7 c #898989",
"8 c gray54",
"9 c #8B8B8B",
"0 c #8D8D8D",
"q c #8E8E8E",
"w c gray56",
"e c #909090",
"r c gray57",
"t c #939393",
"y c gray58",
"u c #959595",
"i c #989898",
"p c gray60",
/* pixels */
"%4444  ppppy                ",
" 44444  pppp>               ",
"  4444@ 8pppp               ",
"  *4444  ppppt              ",
"   44444  pppp*             ",
"    4444O 0pppp             ",
"    -4444  ppppt .4444444444",
"     44444  pppp  1444444444",
"      4444X 0pppp  444444444",
"      -4444  ppppt          ",
"      -4444  ppppp          ",
"      4444X 0pppppp  4444444",
"     44444  ppppppp0 O444444",
"    *4444  ppppppppp  444444",
"    4444O 0pppp ypppp       ",
"   44444  pppp-  pppp8      ",
"  %4444  ppppy   >pppp      ",
"  4444# 8pppp     ypppp     ",
" 44444  pppp>      pppp5    ",
"%4444  ppppy       4pppp    "
};
